<?xml version="1.0" encoding="UTF-8" standalone="no"?>
<!-- Created with Inkscape (http://www.inkscape.org/) -->

<svg
   width="210mm"
   height="297mm"
   viewBox="0 0 210 297"
   version="1.1"
   id="svg1"
   inkscape:version="1.3 (0e150ed6c4, 2023-07-21)"
   sodipodi:docname="新規登録のお願い.svg"
   xml:space="preserve"
   xmlns:inkscape="http://www.inkscape.org/namespaces/inkscape"
   xmlns:sodipodi="http://sodipodi.sourceforge.net/DTD/sodipodi-0.dtd"
   xmlns="http://www.w3.org/2000/svg"
   xmlns:svg="http://www.w3.org/2000/svg"><sodipodi:namedview
     id="namedview1"
     pagecolor="#ffffff"
     bordercolor="#000000"
     borderopacity="0.25"
     inkscape:showpageshadow="2"
     inkscape:pageopacity="0.0"
     inkscape:pagecheckerboard="0"
     inkscape:deskcolor="#d1d1d1"
     inkscape:document-units="mm"
     inkscape:zoom="0.76167929"
     inkscape:cx="327.56569"
     inkscape:cy="575.70162"
     inkscape:window-width="1920"
     inkscape:window-height="1111"
     inkscape:window-x="-9"
     inkscape:window-y="-9"
     inkscape:window-maximized="1"
     inkscape:current-layer="layer1" /><defs
     id="defs1" /><g
     inkscape:label="Layer 1"
     inkscape:groupmode="layer"
     id="layer1"><path
       style="font-size:64px;line-height:1;font-family:'Dela Gothic One';-inkscape-font-specification:'Dela Gothic One';text-align:center;letter-spacing:-0.38px;text-anchor:middle;white-space:pre;fill:#0000ff;stroke-width:12.4205;stroke-linejoin:bevel;paint-order:markers stroke fill"
       d="m 97.802754,24.291288 1.70343,15.85497 h -5.656249 l -0.349421,-11.3125 -2.18388,11.3125 h -5.721766 l -2.227557,-11.22514 -0.327582,11.22514 h -5.65625 l 1.703427,-15.85497 h 7.425192 l 1.899975,10.32975 1.659749,-10.32975 z m 16.009216,4.34592 q -2.59882,-0.13103 -3.84363,-0.15287 v 7.46887 q 1.26665,-0.0218 3.84363,-0.15287 v 4.34592 h -12.68835 v -4.34592 q 2.51146,0.13103 3.82179,0.15287 v -7.46887 q -1.31033,0.0218 -3.82179,0.15287 v -4.34592 h 12.68835 z m 6.77137,7.51255 q 8.29875,-0.0437 12.03318,-0.24023 -0.15287,0.89539 -0.19655,1.8563 -0.0218,0.93907 -0.0218,2.38043 h -16.96875 q 0.17471,-4.23673 0.17471,-7.92748 0,-3.69076 -0.17471,-7.92749 h 16.96875 v 3.95282 h -11.81479 v 2.09653 q 1.04826,0.0218 3.10111,0.0218 3.47237,0 7.18497,-0.13103 v 3.75627 q -3.7126,-0.13103 -7.18497,-0.13103 -2.05285,0 -3.10111,0.0218 z m -62.114319,10.00217 q 4.345921,0 6.049348,1.55055 1.703426,1.52872 1.703426,4.32409 0,1.92181 -0.677003,3.27582 -0.677003,1.33216 -2.380429,2.09652 -1.703426,0.74252 -4.695342,0.74252 h -4.54247 v 3.84363 h -5.372345 q 0.17471,-4.23673 0.17471,-7.92749 0,-3.69075 -0.17471,-7.92748 h 5.372345 v 0.0218 z m -1.528716,7.77461 q 1.81262,0 2.708011,-0.13103 0.91723,-0.15287 1.266651,-0.52413 0.371259,-0.37126 0.371259,-1.09194 0,-0.72068 -0.349421,-1.0701 -0.327582,-0.37126 -1.244811,-0.5023 -0.895391,-0.13103 -2.751689,-0.13103 h -3.013754 v 3.45053 z m 20.617189,8.27691 q -5.001086,0 -7.359676,-2.16204 -2.35859,-2.18388 -2.35859,-6.11487 0,-3.8873 2.336751,-6.07118 2.358591,-2.18388 7.381515,-2.18388 5.044762,0 7.381514,2.18388 2.35859,2.18388 2.35859,6.07118 0,3.95282 -2.336751,6.11487 -2.336752,2.16204 -7.403353,2.16204 z m 0,-4.45512 q 2.424106,0 3.494208,-0.91723 1.070101,-0.93907 1.070101,-2.90456 0,-1.92181 -1.070101,-2.86088 -1.070102,-0.93907 -3.494208,-0.93907 -2.402268,0 -3.47237,0.93907 -1.070101,0.93907 -1.070101,2.86088 0,1.94366 1.070101,2.88272 1.070102,0.93907 3.47237,0.93907 z m 28.894106,-6.33325 q 0,1.89998 -0.93907,3.2103 -0.91723,1.31033 -3.16662,1.89998 0.26206,0.34942 0.37126,0.54597 l 3.53788,4.91373 h -5.94015 q -0.960906,-1.79078 -3.035586,-5.0666 h -3.210306 v 5.0666 h -5.153956 q 0.17471,-4.23673 0.17471,-7.92749 0,-3.69075 -0.17471,-7.92748 h 5.153956 v 0.0218 h 4.476956 q 4.411426,0 6.158536,1.41952 1.7471,1.41952 1.7471,3.84363 z m -12.382592,-1.0701 v 2.48962 h 2.948236 q 1.8563,0 2.79537,-0.10919 0.960896,-0.13103 1.332156,-0.3931 0.37126,-0.26207 0.37126,-0.76436 0,-0.48045 -0.34942,-0.74252 -0.34942,-0.26206 -1.310316,-0.37126 -0.96091,-0.10919 -2.83905,-0.10919 z m 31.667622,0.37126 q -3.42869,-0.1092 -6.66083,-0.13103 v 11.39985 h -5.4597 v -11.39985 q -3.25399,0.0218 -6.639,0.13103 v -4.58615 h 18.75953 z m 13.6506,11.26882 q -0.41494,-1.24481 -1.11378,-3.12295 h -6.96658 l -1.09194,3.12295 h -5.48154 l 6.11487,-15.85497 h 8.03667 l 6.15855,15.85497 z m -2.35859,-6.5298 q -0.82988,-2.29308 -1.70343,-4.58615 l -0.52413,-1.41952 q -0.76436,1.98733 -2.2494,6.00567 z m 13.93453,2.11836 q 6.33325,-0.0437 10.48262,-0.21839 -0.2839,1.11378 -0.34942,2.14021 -0.0655,1.02642 -0.0655,2.48962 H 145.6345 q 0.17471,-4.23673 0.17471,-7.92749 0,-3.69075 -0.17471,-7.92748 h 5.32867 z"
       id="text1"
       aria-label="MIE PORTAL" /><text
       xml:space="preserve"
       style="font-size:10.0586px;line-height:1;font-family:'Gen Shin Gothic P';-inkscape-font-specification:'Gen Shin Gothic P';text-align:center;letter-spacing:-0.119446px;text-anchor:middle;fill:#0000ff;stroke:#0000ff;stroke-width:0.458577;stroke-linecap:round;stroke-linejoin:bevel;paint-order:markers stroke fill"
       x="105.33889"
       y="84.746338"
       id="text2"><tspan
         sodipodi:role="line"
         id="tspan1"
         style="font-size:10.0586px;fill:#000000;stroke:#000000;stroke-width:0.458576"
         x="105.27917"
         y="84.746338">新規登録のご案内</tspan></text><text
       xml:space="preserve"
       style="font-size:10.0586px;line-height:1;font-family:'Gen Shin Gothic P';-inkscape-font-specification:'Gen Shin Gothic P';text-align:center;letter-spacing:-0.119446px;text-anchor:middle;fill:#0000ff;stroke:#0000ff;stroke-width:0.458577;stroke-linecap:round;stroke-linejoin:bevel;paint-order:markers stroke fill"
       x="106.62675"
       y="124.29051"
       id="text2-7"><tspan
         sodipodi:role="line"
         id="tspan1-4"
         style="font-size:10.0586px;fill:#000000;stroke:#000000;stroke-width:0.458576"
         x="106.62675"
         y="124.29051" /></text></g></svg>
