<?xml version="1.0" encoding="utf-8"?>
<!-- Generator: Adobe Illustrator 27.3.1, SVG Export Plug-In . SVG Version: 6.00 Build 0)  -->
<svg version="1.1" id="_レイヤー_1" xmlns="http://www.w3.org/2000/svg" xmlns:xlink="http://www.w3.org/1999/xlink" x="0px"
	 y="0px" viewBox="0 0 733 75.5" style="enable-background:new 0 0 733 75.5;" xml:space="preserve">
<style type="text/css">
	.st0{fill:#009BE4;}
	.st1{fill:#686D70;}
</style>
<polygon class="st0" points="150.6,23.1 153.3,7.8 115.1,7.8 104.3,69 142.5,69 145.2,53.7 122.3,53.7 123.8,44.8 143,44.8 
	145.2,32 126.1,32 127.7,23.1 "/>
<path class="st1" d="M81.3,69h15.3l10.8-61.2H92.1L81.3,69z"/>
<path class="st1" d="M66,7.8c-3.1,0-5.7,1.8-6.9,4.4l0,0L45.8,40.5V15.4c0-4.2-3.4-7.7-7.7-7.7c-3.1,0-5.7,1.8-6.9,4.4l0,0L4.8,69
	h8.4l13.7-29.3c0.5-1,1.6-1.4,2.5-0.9c0.7,0.3,1.1,1,1.1,1.7l0,0V69H41l13.7-29.3c0.5-1,1.6-1.4,2.5-0.9c0.7,0.3,1.1,1,1.1,1.7l0,0
	V69h15.3V15.4C73.6,11.2,70.2,7.8,66,7.8z"/>
<path d="M206.5,20.4v5.9h-6.5v34.1h-5.5V26.3h-7.3v-5.9h7.3v-5.1h5.5v5.1H206.5z M189.4,28.7h4.8l-1.5,24.7
	c-0.1,1.6-0.6,2.8-1.5,3.6c-0.9,0.8-2,1.3-3.3,1.3h-2.2v-5.5h0.4c1,0,1.6-0.6,1.6-1.9L189.4,28.7z M200.4,28.7h4.7l1.4,20.9
	c0.1,1,0.5,1.5,1,1.5h0.1v4.6c0-0.9,0.2-1.9,0.6-3l7.3-20.5h6.7l-7.5,21.8h6.3c2.5,0,3.7-0.3,3.7-0.8l-2.5-7.2h6.1l3.3,8.8
	c0,1.4-0.4,2.7-1.2,3.8c-0.9,0.8-1.7,1.2-2.4,1.2h-20.5v-3h-2.7c-1.8,0-2.9-1.6-3.2-4.7L200.4,28.7z M211.8,16.3h6.4l-2.7,13.6
	c-0.7,3.2-2.5,4.7-5.2,4.7h-3.9v-6h1.7c0.6,0,1.1-0.7,1.5-2.1L211.8,16.3z M220.8,16.3h6.5l2.1,10.3c0.2,1.3,0.6,2,1.2,2h1.6v6h-4.1
	c-2.2,0-3.6-1.5-4.2-4.4L220.8,16.3z"/>
<path d="M284.9,20v6.5h-6.5l4.1,24.4c0.2,1.2,0.7,1.8,1.5,1.8h1.2V59h-4.7c-2.2,0-3.5-1.2-4.1-3.6l-5.3-28.9h-5.3V48h7.3v6.3h-7.3
	v6.3h-7.3v-6.3h-7V48h7V26.5h-3.9l-7,28.7c-0.6,2.5-1.6,3.8-3,3.8h-5.5v-6.3h1.4c0.4,0,0.7-0.4,0.9-1.3l5.9-25h-7.7V20h18.9v-4.9
	h7.3V20H284.9z"/>
<polygon points="440,17.2 440,23.3 424.1,23.3 424.1,52.6 441.5,52.6 441.5,59.1 399,59.1 399,52.6 416.9,52.6 416.9,23.3 
	400.2,23.3 400.2,17.2 "/>
<path d="M463,15.7h5.6c-0.1,2.5-0.6,4.3-1.5,5.3c-0.8,0.9-2,1.4-3.5,1.4h-1.8v3.5h7.3v5.5h-7.3v29h-5.9v-29h-6.3v-5.5h6.3v-3.5h-5.7
	v-5.3h11C462.1,17.1,462.7,16.6,463,15.7 M455.7,34.4l-1.3,19.4c-0.3,3.5-1.1,5.3-2.5,5.3h-3.1v-5.5h0.1c0.4,0,0.7-0.9,0.8-2.7
	l1-16.5H455.7z M462.2,34.5h5l1.1,18c0.1,0.9,0.5,1.4,1,1.4h0.6V59h-3.4c-1.8,0-2.8-1.4-3.1-4.3L462.2,34.5z M469.5,17.6h7l1.2,4.1
	c0.2,1,0.7,1.6,1.5,1.6h3v5.9H476c-2.2,0-3.6-1.1-4.1-3.4L469.5,17.6z M469.9,31.2h7l1,4.1c0.2,1,0.7,1.6,1.6,1.6h2.6v5.9h-5.9
	c-2.2,0-3.6-1.1-4.1-3.3L469.9,31.2z M494.6,45.9v6.1l-3.5,0.1v8.1h-6.8v-7.7L469.7,53V47l14.5-0.6V15.5h6.8V46L494.6,45.9z"/>
<path d="M527.8,38.4v-2.5H539v1.1c0,0.9-0.2,1.4-0.6,1.4H527.8z M527.8,16.5v-1.8h-6.5v1.8h-18.9v5.2h18.9v1.8h-17.5v20h38.5
	c2.3,0,3.4-1.3,3.4-3.9V23.5h-17.9v-1.8h19.5v-5.2H527.8z M510.5,35.9h10.9v2.5h-10.9V35.9z M510.5,28.6h10.9v2.7h-10.9V28.6z
	 M539,31.4h-11.2v-2.7H539V31.4z M542.3,45.9v-1.6h-6.9v1.6h-33.1v5.5h33.1v2.9c0,0.6-0.4,0.9-1.2,0.9h-8.6v5.1h10.2
	c4.3,0,6.5-1.7,6.5-5.1v-3.9h5v-5.4H542.3z M510.2,57.5c0.9,1.1,1.9,1.7,3,1.7h10.4v-4.7H517c-0.7,0-1.1-0.1-1.3-0.4l-1.2-1.5H507
	L510.2,57.5z"/>
<path d="M570.4,25.7H563v-5.1h7.5V25.7z M570.4,30.8v4.7c0,0.6-0.5,0.9-1.4,0.9H563v-5.6H570.4z M571.2,41.7c3.7,0,5.5-1.6,5.5-4.7
	V15.5h-20.2v45h6.4V41.7H571.2z M578.9,15.5v22.3c0,2.6,1.5,3.9,4.5,3.9h8.9v12.2c0,0.6-0.5,1-1.4,1h-6.6v5.5h8.8
	c3.8,0,5.7-1.6,5.7-4.9V15.5h-13.5H578.9z M586,36.4c-0.5,0-0.8-0.4-0.8-1.3v-4.3h7.1v5.6H586z M585.2,20.6h7.1v5.1h-7.1V20.6z"/>
<path d="M624.6,15.3h7.9l0.4,2.8c0.2,0.9,0.7,1.3,1.6,1.3h2v5h-5.7c-2.4,0-3.9-0.9-4.5-2.8L624.6,15.3z M609.3,15.3h7.9l0.6,2.8
	c0.2,0.9,0.7,1.3,1.6,1.3h3.5v5h-7.2c-2.4,0-3.9-0.9-4.5-2.8L609.3,15.3z M651.9,15.3l-1.8,7.1c-0.4,1.3-1.5,2-3.3,2h-8.1v-5h3.3
	c0.5,0,0.8-0.2,0.9-0.5l1-3.6H651.9z M652.9,25.5v8.8h-7.1v-2.9h-30.6v2.9h-7.1v-8.8H652.9z M611.2,34.9h35.6v6.7l-4.5,2.6h10.6v6.1
	h-16.5V57c0,2.3-1.6,3.5-4.7,3.5h-17.2v-5.6h12.8c0.9,0,1.4-0.3,1.4-1v-3.7H608v-6.1h23.2l6.7-3.6h-26.7V34.9z"/>
<path d="M679.2,19.4v5.7h-5.9v35h-5.5v-35H661v-5.7h6.7v-4.5h5.5v4.5H679.2z M662.3,27.5h5.1L666.2,53c-0.1,1.7-0.5,2.9-1.2,3.7
	c-0.7,0.9-1.6,1.3-2.7,1.3h-2.2v-5.6h0.1c0.6,0,0.9-0.7,1-2L662.3,27.5z M673.6,27.5h5l0.9,23.4c0.1,1.1,0.5,1.6,1,1.6h0.2v5.3h-3
	c-1.8,0-2.8-1.5-3.1-4.6L673.6,27.5z M689.8,14.9h6.9v2h9.5v5.9h-25.6v-5.9h9.2V14.9z M685.3,24.6h6.3l-2.9,6.9
	c-0.6,1.5-1.7,2.3-3.1,2.3h-4.7v-4.9h2.4c0.4,0,0.8-0.3,1-1L685.3,24.6z M694.3,24.6h6.5l0.9,3.3c0.2,0.7,0.5,1,1,1h3.4v4.9h-6.5
	c-1.1,0-1.9-0.8-2.6-2.3L694.3,24.6z M697.7,35.5h7.9l-7.8,12.4l3.9,5.8c0.6,0.9,1.3,1.4,2.1,1.4h2.2v5.3H700
	c-1.2,0-2.3-0.6-3.2-1.9l-2.9-4.4l-2.1,3.3c-1.2,1.7-2.5,2.5-4,2.5h-6.4v-5.5h2.5c1.2,0,2.4-1.1,3.7-3.2l2.2-3.4l-8.3-12.2h7.9
	l4.2,6.2L697.7,35.5z"/>
<path d="M293.4,17.5h5.5V57h-5.5V17.5z M301,14.8h5.9v7.8h2.7v6.7h-2.7v31.5H301V14.8z M337.2,17.1v4.7h-10.9v2h10.2v4.5h-10.2v2
	h11.5v4.9h-28.7v-4.9H320v-2h-9.2v-4.5h9.2v-2h-10.2v-4.7H320v-2.3h6.3v2.3H337.2z M336.4,36.9v19.2c0,3-1.8,4.5-5.5,4.5h-6.1v-4.5
	h4.7c0.6,0,0.9-0.3,0.9-0.8v-1.5h-14.2v6.7h-5.9V36.9H336.4z M316.3,43.3h14.2v-1.9h-14.2V43.3z M316.3,49.6h14.2v-2.1h-14.2V49.6z"
	/>
<path d="M366.8,17.8v5.9h-7v3.9h7.6v6.1h-21.5v-6.1h7.5v-3.9h-6.9v-5.9h6.9v-2.6h6.5v2.6H366.8z M347.3,35h6.1l1.1,4.7h4.6l1.3-4.7
	h6.1l-1.4,4.7h2.3v6h-7.6V50h7v5.9h-7v4.5h-6.5v-4.5h-6.9V50h6.9v-4.3h-7.5v-6h2.4L347.3,35z M374.5,15.8h16.2v11.9
	c0,3.4-2,5.1-6.1,5.1h-7.8v-5.6h5.4c1,0,1.6-0.4,1.6-1.2v-4.3h-9.1v12.7h15.8v6.3l-4.8,9.2l1.8,2.3c0.9,1.1,1.9,1.6,3,1.6h0.4v6.1
	h-3.3c-0.9,0-1.7-0.5-2.4-1.3l-2.3-3.1l-1.6,3c-0.6,1.1-1.5,1.6-2.7,1.6h-3.1v-5.6h0.2c0.7,0,1.2-0.3,1.5-1l1.6-3.1l-4.1-5.3v15.3
	h-6.5V15.8H374.5z M374.7,42.6h5.2l1.7,2.1l2.3-4.5h-9.1V42.6z"/>
</svg>
