<?xml version="1.0" encoding="UTF-8" standalone="no"?>
<!-- Created with Inkscape (http://www.inkscape.org/) -->

<svg
   width="426.677"
   height="143.29004"
   viewBox="0 0 112.89162 37.912157"
   version="1.1"
   id="svg1"
   xmlns="http://www.w3.org/2000/svg"
   xmlns:svg="http://www.w3.org/2000/svg">
  <defs
     id="defs1" />
  <g
     id="layer1"
     transform="translate(-0.00135754,-0.3445032)">
    <path
       style="font-size:64px;line-height:1;font-family:'Dela Gothic One';-inkscape-font-specification:'Dela Gothic One';text-align:center;letter-spacing:-0.38px;text-anchor:middle;white-space:pre;fill:#ffdd55;stroke-width:36.399;stroke-linejoin:bevel;paint-order:markers stroke fill"
       d="m 222.44803,82.064984 4.992,46.463996 h -16.576 l -1.024,-33.151996 -6.4,33.151996 h -16.768 l -6.528,-32.895996 -0.96,32.895996 h -16.576 l 4.992,-46.463996 h 21.76 l 5.568,30.271996 4.864,-30.271996 z m 46.91603,12.736 q -7.616,-0.384 -11.264,-0.448 v 21.887996 q 3.712,-0.064 11.264,-0.448 v 12.736 h -37.184 v -12.736 q 7.36,0.384 11.2,0.448 V 94.352984 q -3.84,0.064 -11.2,0.448 v -12.736 h 37.184 z m 19.84395,22.015996 q 24.32,-0.128 35.264,-0.704 -0.448,2.624 -0.576,5.44 -0.064,2.752 -0.064,6.976 h -49.728 q 0.512,-12.416 0.512,-23.232 0,-10.815996 -0.512,-23.231996 h 49.728 v 11.584 h -34.624 v 6.144 q 3.072,0.064 9.088,0.064 10.176,0 21.056,-0.384 v 11.007996 q -10.88,-0.384 -21.056,-0.384 -6.016,0 -9.088,0.064 z m -182.03001,29.312 q 12.736,0 17.728,4.544 4.992,4.48 4.992,12.672 0,5.632 -1.984,9.6 -1.984,3.904 -6.976,6.144 -4.992,2.176 -13.76,2.176 H 93.865999 v 11.264 h -15.744 q 0.512,-12.416 0.512,-23.232 0,-10.816 -0.512,-23.232 h 15.744 v 0.064 z m -4.48,22.784 q 5.312,0 7.936,-0.384 2.688,-0.448 3.712,-1.536 1.088,-1.088 1.088,-3.2 0,-2.112 -1.024,-3.136 -0.96,-1.088 -3.648,-1.472 -2.624,-0.384 -8.064,-0.384 h -8.832001 v 10.112 z m 60.41999,24.256 q -14.656,0 -21.568,-6.336 -6.912,-6.4 -6.912,-17.92 0,-11.392 6.848,-17.792 6.912,-6.4 21.632,-6.4 14.784,0 21.632,6.4 6.912,6.4 6.912,17.792 0,11.584 -6.848,17.92 -6.848,6.336 -21.696,6.336 z m 0,-13.056 q 7.104,0 10.24,-2.688 3.136,-2.752 3.136,-8.512 0,-5.632 -3.136,-8.384 -3.136,-2.752 -10.24,-2.752 -7.04,0 -10.176,2.752 -3.136,2.752 -3.136,8.384 0,5.696 3.136,8.448 3.136,2.752 10.176,2.752 z m 84.67605,-18.56 q 0,5.568 -2.752,9.408 -2.688,3.84 -9.28,5.568 0.768,1.024 1.088,1.6 l 10.368,14.4 h -17.408 q -2.816,-5.248 -8.896,-14.848 h -9.408 v 14.848 h -15.104 q 0.512,-12.416 0.512,-23.232 0,-10.816 -0.512,-23.232 h 15.104 v 0.064 h 13.12 q 12.928,0 18.048,4.16 5.12,4.16 5.12,11.264 z m -36.288,-3.136 v 7.296 h 8.64 q 5.44,0 8.192,-0.32 2.816,-0.384 3.904,-1.152 1.088,-0.768 1.088,-2.24 0,-1.408 -1.024,-2.176 -1.024,-0.768 -3.84,-1.088 -2.816,-0.32 -8.32,-0.32 z m 92.80401,1.088 q -10.048,-0.32 -19.52,-0.384 v 33.408 h -16 v -33.408 q -9.536,0.064 -19.456,0.384 v -13.44 h 54.976 z m 40.00395,33.024 q -1.216,-3.648 -3.264,-9.152 h -20.416 l -3.2,9.152 H 301.37 l 17.92,-46.464 h 23.552 l 18.048,46.464 z m -6.912,-19.136 q -2.432,-6.72 -4.992,-13.44 l -1.536,-4.16 q -2.24,5.824 -6.592,17.6 z m 40.83603,6.208 q 18.56,-0.128 30.72,-0.64 -0.832,3.264 -1.024,6.272 -0.192,3.008 -0.192,7.296 h -45.12 q 0.512,-12.416 0.512,-23.232 0,-10.816 -0.512,-23.232 h 15.616 z"
       id="text1"
       transform="matrix(0.34123125,0,0,0.34123125,-26.65631,-27.658634)"
       aria-label="MIE PORTAL" />
  </g>
</svg>
