<!--?xml version="1.0" encoding="utf-8"?-->
<!-- Generator: Adobe Illustrator 18.0.0, SVG Export Plug-In . SVG Version: 6.00 Build 0)  -->

<svg version="1.1" id="_x31_0" xmlns="http://www.w3.org/2000/svg" xmlns:xlink="http://www.w3.org/1999/xlink" x="0px" y="0px" viewBox="0 0 512 512" style="width: 256px; height: 256px; opacity: 1;" xml:space="preserve">
<style type="text/css">
	.st0{fill:#374149;}
</style>
<g>
	<path class="st0" d="M472.656,203.996l-28.535-1.742c-4.14-14.519-9.894-28.347-17.09-41.277l18.938-21.402
		c14.68-16.586,13.91-41.73-1.75-57.391l-14.402-14.402c-15.661-15.665-40.805-16.43-57.391-1.754l-21.402,18.942
		c-12.93-7.199-26.762-12.95-41.277-17.09l-1.742-28.535C306.652,17.238,288.332,0,266.183,0h-20.366
		c-22.149,0-40.473,17.238-41.821,39.344l-1.742,28.535c-14.519,4.14-28.351,9.89-41.277,17.09l-21.402-18.942
		c-16.586-14.676-41.734-13.91-57.394,1.75L67.778,82.183c-15.661,15.661-16.426,40.805-1.75,57.391l18.942,21.402
		c-7.199,12.93-12.95,26.758-17.09,41.277l-28.535,1.742C17.238,205.344,0,223.668,0,245.817v20.366
		c0,22.149,17.238,40.469,39.344,41.821l28.535,1.742c4.14,14.515,9.89,28.351,17.09,41.277l-18.942,21.402
		c-14.676,16.586-13.91,41.73,1.75,57.391l14.402,14.406c15.66,15.661,40.808,16.426,57.394,1.75l21.402-18.942
		c12.926,7.199,26.758,12.95,41.277,17.09l1.742,28.535C205.344,494.762,223.668,512,245.817,512h20.366
		c22.149,0,40.469-17.238,41.821-39.344l1.742-28.535c14.515-4.14,28.347-9.89,41.277-17.09l21.402,18.942
		c16.586,14.676,41.73,13.906,57.391-1.754l14.402-14.402c15.661-15.661,16.43-40.805,1.75-57.391l-18.938-21.402
		c7.195-12.926,12.95-26.762,17.09-41.277l28.535-1.742C494.762,306.652,512,288.332,512,266.183v-20.366
		C512,223.668,494.762,205.344,472.656,203.996z M311.574,256c0,30.691-24.883,55.574-55.574,55.574
		c-30.695,0-55.574-24.883-55.574-55.574s24.879-55.574,55.574-55.574C286.691,200.426,311.574,225.309,311.574,256z"></path>
</g>
</svg>
